<svg xmlns="http://www.w3.org/2000/svg" width="100pt" height="100pt" viewBox="0 0 100 100"><path d="M81.551 44.586c-.078.297-.2.582-.363.844L51.657 93.227c-1.278 2.219-3.75 3.648-6.406 3.648a7.426 7.426 0 0 1-5.758-2.723 7.424 7.424 0 0 1-1.551-6.175c.023-.121.055-.243.094-.364L46.239 62.5H33.762a12.397 12.397 0 0 1-10.008-5.011c-2.383-3.188-3.106-7.2-1.985-11.016L32.54 9.856c1.168-3.965 4.868-6.73 8.996-6.73h15.328a9.308 9.308 0 0 1 7.43 3.655 9.308 9.308 0 0 1 1.633 8.118l-5.035 17.914H72.49a9.308 9.308 0 0 1 7.43 3.656 9.31 9.31 0 0 1 1.632 8.117z" fill="#03a9f4"/></svg>